<?xml version="1.0" standalone="no"?>
<!DOCTYPE svg PUBLIC "-//W3C//DTD SVG 20010904//EN"
 "http://www.w3.org/TR/2001/REC-SVG-20010904/DTD/svg10.dtd">
<svg version="1.0" xmlns="http://www.w3.org/2000/svg"
 width="512.000000pt" height="512.000000pt" viewBox="0 0 512.000000 512.000000"
 preserveAspectRatio="xMidYMid meet">
<metadata>
Created by potrace 1.11, written by Peter Selinger 2001-2013
</metadata>
<g transform="translate(0.000000,512.000000) scale(0.100000,-0.100000)"
fill="#000000" stroke="none">
<path d="M2498 5109 c-349 -51 -721 -263 -1032 -590 -145 -152 -282 -334 -345
-457 -15 -29 -29 -42 -49 -47 -42 -9 -142 -78 -194 -132 -59 -64 -92 -123
-130 -229 -25 -74 -29 -98 -25 -149 7 -73 34 -139 77 -189 l33 -37 -44 -37
c-154 -131 -257 -283 -318 -468 -87 -267 -49 -530 105 -732 39 -51 39 -54 18
-113 -48 -138 -61 -327 -28 -435 33 -107 91 -182 215 -276 47 -36 183 -107
213 -112 6 -1 16 -4 21 -7 6 -4 27 -9 47 -13 26 -5 39 -13 44 -29 13 -44 122
-254 177 -342 174 -281 400 -478 622 -544 72 -21 214 -42 228 -34 5 3 8 -1 6
-8 -5 -39 4 -64 34 -94 33 -33 33 -33 122 -30 85 3 106 5 200 20 159 25 375
110 540 213 248 154 513 427 708 728 l66 102 73 22 c81 25 163 65 230 113 172
123 240 239 241 417 2 126 -12 219 -47 318 l-16 44 45 62 c58 82 100 172 125
271 78 306 -65 691 -342 919 l-48 38 39 47 c67 81 90 177 66 279 -45 188 -149
325 -307 402 -72 35 -155 116 -195 193 -32 59 -29 81 11 106 34 21 139 61 161
61 6 0 21 -24 34 -54 12 -29 46 -80 75 -113 116 -127 279 -172 442 -122 214
66 332 272 290 505 -17 91 -113 217 -205 269 -140 80 -336 71 -455 -20 l-45
-34 -113 54 c-265 126 -587 220 -853 251 -33 3 -69 8 -80 11 -40 8 -382 10
-437 2z"/>
</g>
</svg>
